<?xml version="1.0" standalone="no"?><!DOCTYPE svg PUBLIC "-//W3C//DTD SVG 1.1//EN" "http://www.w3.org/Graphics/SVG/1.1/DTD/svg11.dtd"><svg t="1658730551234" class="icon" viewBox="0 0 1027 1024" version="1.1" xmlns="http://www.w3.org/2000/svg" p-id="10753" xmlns:xlink="http://www.w3.org/1999/xlink" width="200.5859375" height="200"><defs><style type="text/css">@font-face { font-family: feedback-iconfont; src: url("//at.alicdn.com/t/font_1031158_u69w8yhxdu.woff2?t=1630033759944") format("woff2"), url("//at.alicdn.com/t/font_1031158_u69w8yhxdu.woff?t=1630033759944") format("woff"), url("//at.alicdn.com/t/font_1031158_u69w8yhxdu.ttf?t=1630033759944") format("truetype"); }
</style></defs><path d="M1024.651264 292.699136c0 87.04-37.888 165.888-99.328 219.136 61.44 54.272 99.328 131.072 99.328 220.16l0 146.432c-81.92 0-146.432-64.512-146.432-146.432s-64.512-146.432-146.432-146.432-146.432 64.512-146.432 146.432-64.512 146.432-146.432 146.432l0-146.432c0-89.088 37.888-165.888 99.328-220.16-61.44-53.248-99.328-132.096-99.328-219.136l0-146.432c81.92 0 146.432 64.512 146.432 146.432s64.512 146.432 146.432 146.432 146.432-64.512 146.432-146.432 64.512-146.432 146.432-146.432L1024.651264 292.699136zM291.467264 731.995136c61.44 0 113.664-36.864 135.168-89.088-8.192 27.648-12.288 57.344-12.288 89.088l0 119.808c-38.912 17.408-79.872 26.624-122.88 26.624-160.768 0-292.864-132.096-292.864-292.864l0-439.296c81.92 0 146.432 64.512 146.432 146.432l0 292.864C145.035264 667.483136 209.547264 731.995136 291.467264 731.995136L291.467264 731.995136zM438.923264 422.747136c14.336 34.816 33.792 65.536 59.392 93.184-28.672 31.744-50.176 67.584-64.512 105.472 3.072-12.288 5.12-24.576 5.12-35.84L438.923264 422.747136z" p-id="10754"></path></svg>