<?xml version="1.0" standalone="no"?><!DOCTYPE svg PUBLIC "-//W3C//DTD SVG 1.1//EN" "http://www.w3.org/Graphics/SVG/1.1/DTD/svg11.dtd"><svg t="1529557532830" class="icon" style="" viewBox="0 0 1024 1024" version="1.1" xmlns="http://www.w3.org/2000/svg" p-id="27668" xmlns:xlink="http://www.w3.org/1999/xlink" width="46" height="46"><defs><style type="text/css"></style></defs><path d="M785.655172 1023.982345c-131.636966 0-238.327172-106.690207-238.327172-238.327172C547.328 654.035862 654.018207 547.310345 785.655172 547.310345S1024 654.035862 1024 785.655172C1024 917.292138 917.274483 1023.982345 785.655172 1023.982345L785.655172 1023.982345zM953.37931 794.482759c0-9.745655-7.927172-17.655172-17.655172-17.655172l-123.603862 0 0-105.913379c0-9.76331-7.891862-17.655172-17.637517-17.655172l-17.655172 0c-9.76331 0-17.655172 7.891862-17.655172 17.655172l0 141.241379c0 9.745655 7.891862 17.655172 17.655172 17.655172l17.655172 0 141.241379 0c9.745655 0 17.655172-7.927172 17.655172-17.655172L953.37931 794.482759 953.37931 794.482759zM517.755586 635.586207 194.206897 635.586207c-29.272276 0-52.983172 23.710897-52.983172 52.947862l0 17.655172c0 29.272276 23.710897 52.983172 52.983172 52.983172l283.365517 0c-0.388414 5.861517-0.900414 11.687724-0.900414 17.637517 0 76.870621 32.926897 145.831724 85.203862 194.224552L141.223724 971.034483C63.240828 971.034483 0 907.81131 0 829.793103L0 141.241379c0-78.018207 63.258483-141.223724 141.223724-141.223724l406.086621 0 0 105.913379c0 78.018207 63.223172 141.259034 141.223724 141.259034l141.241379 0 0 280.205241c-27.648-9.798621-57.273379-15.39531-88.275862-15.39531C647.238621 511.982345 564.683034 561.399172 517.755586 635.586207L517.755586 635.586207zM670.896552 441.361655C670.896552 412.12469 647.185655 388.413793 617.931034 388.413793L194.206897 388.413793c-29.272276 0-52.983172 23.710897-52.983172 52.947862l0 17.655172c0 29.272276 23.710897 52.947862 52.983172 52.947862l423.724138 0C647.185655 511.982345 670.896552 488.306759 670.896552 459.034483L670.896552 441.361655 670.896552 441.361655zM794.500414 194.206897l-158.896552 0C616.094897 194.206897 600.275862 178.405517 600.275862 158.896552l0-158.896552 52.947862 0 176.551724 158.896552C829.793103 178.405517 813.991724 194.206897 794.500414 194.206897L794.500414 194.206897z" p-id="27669"></path></svg>